# xmcd CD database file
#
# Track frame offsets:
#	150
#	19333
#	32085
#	51700
#	67298
#	85461
#	97367
#	117376
#	133574
#	154442
#	173082
#	189026
#	206865
#	220002
#	236297
#	254364
#
# Disc length: 3696 seconds
#
# Revision: 0
# Processed by: cddbd v1.5PL3 Copyright (c) Steve Scherf et al.
# Submitted via: CDex 1.51
#
DISCID=f40e6e10
DTITLE=Lee Stewart - How deep ist the ocean
DYEAR=1998
DGENRE=Jazz
TTITLE0=In A Sentimental Mood
TTITLE1=Spring Is Here
TTITLE2=How Deep Is The Ocean
TTITLE3=All I Aks Of You
TTITLE4=Think Of Me
TTITLE5=Wishing You Were Somehow Here Again
TTITLE6=Stella By Starlight
TTITLE7=Laura
TTITLE8='Round Midnight
TTITLE9=Autumn Leaves
TTITLE10=Whats Is There To Say?
TTITLE11=Alone Together
TTITLE12=How My Hearts Sings
TTITLE13=A Time For Love
TTITLE14=I've Got It Bad
TTITLE15=My Foolish Heart
EXTD=YEAR: 1998
EXTT0=
EXTT1=
EXTT2=
EXTT3=
EXTT4=
EXTT5=
EXTT6=
EXTT7=
EXTT8=
EXTT9=
EXTT10=
EXTT11=
EXTT12=
EXTT13=
EXTT14=
EXTT15=
PLAYORDER=
